#!OML:ASF H:\Pregnant\Project 1\Capture day 1\Session 1\femalepreg.ASF
:FULLY-SPECIFIED
:DEGREES
289
root -2.54664 15.2363 31.8898 -157.232 -33.0566 177.264
lowerback -14.6221 -2.11667 -4.45322
upperback -3.59517 -2.50311 0.925408
thorax 4.59903 -1.4148 3.02117
lowerneck -7.74442 18.6218 21.2589
upperneck 6.17767 24.5318 -16.0546
head 7.71712 11.6792 -5.25474
rclavicle -4.95471e-014 2.20651e-014
rhumerus -65.0263 -7.74389 -62.886
rradius 18.7988
rwrist -0.558251
rhand -22.2972 -26.8052
rfingers 7.12502
rthumb 4.12181 -56.7451
lclavicle -4.95471e-014 2.20651e-014
lhumerus -39.2969 -32.3128 92.9295
lradius 44.6432
lwrist 44.7119
lhand -28.9109 -8.47791
lfingers 7.12502
lthumb -2.26566 21.4898
rfemur -55.8051 8.20113 1.97733
rtibia 47.06
rfoot -15.5066 -13.6743
rtoes -11.2757
lfemur -34.4574 -17.5788 -22.3366
ltibia 23.8512
lfoot -10.1942 2.28692
ltoes 6.87382
290
root -2.5537 15.2311 31.9661 -157.43 -32.3293 177.499
lowerback -14.5771 -2.01201 -4.38325
upperback -3.58059 -2.37357 0.849425
thorax 4.57305 -1.35 2.92695
lowerneck -7.57147 18.7137 21.3832
upperneck 6.09613 24.6716 -16.0693
head 7.70384 11.7574 -5.25848
rclavicle -3.84648e-014 -8.15017e-015
rhumerus -65.0634 -8.06719 -62.5332
rradius 18.8567
rwrist -0.675625
rhand -21.939 -26.6104
rfingers 7.12502
rthumb 4.46767 -56.5433
lclavicle -3.84648e-014 -8.15017e-015
lhumerus -38.9564 -32.5016 92.4182
lradius 44.8726
lwrist 44.2598
lhand -28.8467 -8.38054
lfingers 7.12502
lthumb -2.2037 21.5878
rfemur -55.787 8.03639 3.07514
rtibia 48.2796
rfoot -15.7002 -13.4174
rtoes -11.4984
lfemur -34.828 -17.3028 -22.3766
ltibia 24.3257
lfoot -10.212 2.72892
ltoes 6.93606
291
root -2.55972 15.2253 32.0418 -157.616 -31.616 177.706
lowerback -14.5311 -1.91428 -4.33943
upperback -3.56885 -2.24926 0.76589
thorax 4.54506 -1.28804 2.83847
lowerneck -7.39851 18.8133 21.5173
upperneck 6.03348 24.8238 -16.0858
head 7.70059 11.8414 -5.26043
rclavicle -1.58407e-014 -1.0138e-014
rhumerus -65.0435 -8.40455 -62.2163
rradius 18.944
rwrist -0.884533
rhand -21.5437 -26.4097
rfingers 7.12502
rthumb 4.84936 -56.3342
lclavicle -1.58407e-014 -1.0138e-014
lhumerus -38.595 -32.5992 91.8634
lradius 45.0718
lwrist 43.7367
lhand -28.8472 -8.32449
lfingers 7.12502
lthumb -2.20417 21.6439
rfemur -55.7185 7.89669 4.15777
rtibia 49.5184
rfoot -15.9169 -13.2304
rtoes -11.7138
lfemur -35.1847 -17.0215 -22.4311
ltibia 24.7729
lfoot -10.2125 3.13821
ltoes 7.01411
292
root -2.56458 15.2187 32.1171 -157.78 -30.9276 177.888
lowerback -14.5229 -1.82642 -4.32023
upperback -3.53094 -2.13007 0.676208
thorax 4.56685 -1.22946 2.75489
lowerneck -7.26739 18.9268 21.6488
upperneck 5.97129 24.9894 -16.1122
head 7.70792 11.9284 -5.25834
rclavicle 2.48729e-014 -1.57537e-014
rhumerus -64.9195 -8.77418 -61.9635
rradius 19.0591
rwrist -1.18252
rhand -21.1247 -26.2206
rfingers 7.12502
rthumb 5.25393 -56.1355
lclavicle 2.48729e-014 -1.57537e-014
lhumerus -38.1492 -32.6184 91.2397
lradius 45.2413
lwrist 43.1836
lhand -28.9175 -8.33634
lfingers 7.12502
lthumb -2.27207 21.6313
rfemur -55.6044 7.76121 5.2293
rtibia 50.7638
rfoot -16.1468 -13.1011
rtoes -12.0251
lfemur -35.5422 -16.7301 -22.4998
ltibia 25.2
lfoot -10.2008 3.5019
ltoes 7.09813
293
root -2.56849 15.2114 32.192 -157.925 -30.2635 178.049
lowerback -14.555 -1.75286 -4.32648
upperback -3.46954 -2.02232 0.588908
thorax 4.6376 -1.17745 2.68471
lowerneck -7.14911 19.0543 21.7848
upperneck 5.88758 25.1741 -16.1715
head 7.7195 12.0218 -5.26148
rclavicle 4.52047e-014 -2.82239e-015
rhumerus -64.6848 -9.15323 -61.7831
rradius 19.1985
rwrist -1.54583
rhand -20.7053 -26.0305
rfingers 7.12502
rthumb 5.65888 -55.935
lclavicle 4.52047e-014 -2.82239e-015
lhumerus -37.6238 -32.5342 90.5557
lradius 45.3715
lwrist 42.6277
lhand -29.0315 -8.44867
lfingers 7.12502
lthumb -2.38213 21.5178
rfemur -55.442 7.6336 6.28961
rtibia 52.0006
rfoot -16.3925 -13.0091
rtoes -12.3828
lfemur -35.9063 -16.4245 -22.5789
ltibia 25.6141
lfoot -10.1808 3.81946
ltoes 7.20674
294
root -2.57157 15.2035 32.2665 -158.048 -29.6271 178.196
lowerback -14.6108 -1.68443 -4.34073
upperback -3.4063 -1.91889 0.495945
thorax 4.72384 -1.12809 2.61177
lowerneck -7.07333 19.1889 21.9044
upperneck 5.83755 25.3628 -16.2093
head 7.7445 12.1152 -5.25047
rclavicle -5.9623e-014 -1.10822e-014
rhumerus -64.3879 -9.53091 -61.6918
rradius 19.3781
rwrist -1.96163
rhand -20.2924 -25.8466
rfingers 7.12502
rthumb 6.0575 -55.74
lclavicle -5.9623e-014 -1.10822e-014
lhumerus -37.0675 -32.3625 89.8345
lradius 45.4732
lwrist 42.0895
lhand -29.1969 -8.61644
lfingers 7.12502
lthumb -2.54184 21.3482
rfemur -55.2337 7.51141 7.34011
rtibia 53.2138
rfoot -16.6477 -12.9387
rtoes -12.8066
lfemur -36.2839 -16.0977 -22.6663
ltibia 26.0169
lfoot -10.1567 4.08389
ltoes 7.32128
295
root -2.57401 15.1951 32.3409 -158.152 -29.0064 178.335
lowerback -14.6815 -1.62316 -4.37049
upperback -3.34722 -1.82281 0.409429
thorax 4.81529 -1.08287 2.55292
lowerneck -6.98542 19.3235 22.0208
upperneck 5.77775 25.5556 -16.2616
head 7.7672 12.2103 -5.24354
rclavicle -1.73688e-014 7.95139e-016
rhumerus -64.0233 -9.87301 -61.6924
rradius 19.5883
rwrist -2.40384
rhand -19.9272 -25.6331
rfingers 7.12502
rthumb 6.41012 -55.5161
lclavicle -1.73688e-014 7.95139e-016
lhumerus -36.505 -32.0803 89.1006
lradius 45.565
lwrist 41.5812
lhand -29.3887 -8.79331
lfingers 7.12502
lthumb -2.72711 21.169
rfemur -54.9818 7.40837 8.37659
rtibia 54.3902
rfoot -16.9032 -12.8591
rtoes -13.2589
lfemur -36.6742 -15.7423 -22.7608
ltibia 26.4106
lfoot -10.1319 4.30144
ltoes 7.45084
296
root -2.57658 15.187 32.4144 -158.245 -28.3991 178.461
lowerback -14.7351 -1.56127 -4.4106
upperback -3.32376 -1.72886 0.323734
thorax 4.86025 -1.0387 2.50138
lowerneck -6.84452 19.4408 22.168
upperneck 5.72723 25.7358 -16.3304
head 7.78911 12.3025 -5.25171
rclavicle 4.5062e-014 -1.11319e-014
rhumerus -63.6504 -10.1795 -61.7423
rradius 19.8155
rwrist -2.81813
rhand -19.6085 -25.3969
rfingers 7.12502
rthumb 6.71779 -55.2703
lclavicle 4.5062e-014 -1.11319e-014
lhumerus -36.0052 -31.7065 88.4021
lradius 45.6381
lwrist 41.1226
lhand -29.5547 -8.97202
lfingers 7.12502
lthumb -2.88742 20.9882
rfemur -54.667 7.3183 9.39717
rtibia 55.5175
rfoot -17.1789 -12.7268
rtoes -13.5924
lfemur -37.0569 -15.3649 -22.8695
ltibia 26.7841
lfoot -10.1101 4.47751
ltoes 7.6077
297
root -2.57839 15.1785 32.488 -158.321 -27.8012 178.58
lowerback -14.762 -1.50579 -4.46975
upperback -3.3356 -1.64599 0.250737
thorax 4.85494 -0.999955 2.47301
lowerneck -6.66422 19.5512 22.3382
upperneck 5.69421 25.9165 -16.4089
head 7.81545 12.3972 -5.26773
rclavicle -3.72473e-014 -3.598e-014
rhumerus -63.2417 -10.4193 -61.8622
rradius 20.0552
rwrist -3.21268
rhand -19.3596 -25.1271
rfingers 7.12502
rthumb 6.95805 -54.9927
lclavicle -3.72473e-014 -3.598e-014
lhumerus -35.5634 -31.2132 87.7364
lradius 45.7043
lwrist 40.7234
lhand -29.7234 -9.08668
lfingers 7.12502
lthumb -3.05029 20.8712
rfemur -54.3086 7.25491 10.3993
rtibia 56.5883
rfoot -17.4569 -12.557
rtoes -13.8699
lfemur -37.4435 -14.9635 -22.9826
ltibia 27.129
lfoot -10.0741 4.61512
ltoes 7.77328
298
root -2.58092 15.1706 32.5603 -158.387 -27.2093 178.677
lowerback -14.7531 -1.44926 -4.54176
upperback -3.39556 -1.56671 0.174609
thorax 4.77955 -0.962706 2.44921
lowerneck -6.42639 19.6346 22.5233
upperneck 5.68493 26.0722 -16.4797
head 7.83712 12.4846 -5.29299
rclavicle -3.41413e-014 -4.57205e-015
rhumerus -62.8456 -10.6017 -62.0323
rradius 20.3113
rwrist -3.56452
rhand -19.153 -24.8668
rfingers 7.12502
rthumb 7.1575 -54.7258
lclavicle -3.41413e-014 -4.57205e-015
lhumerus -35.2258 -30.6435 87.1278
lradius 45.7711
lwrist 40.4161
lhand -29.8388 -9.11842
lfingers 7.12502
lthumb -3.16181 20.8379
rfemur -53.8742 7.19755 11.3739
rtibia 57.5951
rfoot -17.7531 -12.3007
rtoes -14.0314
lfemur -37.8023 -14.5531 -23.1225
ltibia 27.44
lfoot -10.0359 4.7278
ltoes 7.93961
299
root -2.58393 15.1628 32.6314 -158.445 -26.6202 178.749
lowerback -14.7079 -1.39179 -4.6317
upperback -3.506 -1.49109 0.0917341
thorax 4.63124 -0.927048 2.42892
lowerneck -6.12245 19.6885 22.7069
upperneck 5.70499 26.2012 -16.525
head 7.84923 12.565 -5.32185
rclavicle 4.84041e-014 -2.80286e-014
rhumerus -62.4684 -10.7162 -62.2675
rradius 20.582
rwrist -3.88612
rhand -18.9941 -24.6188
rfingers 7.12502
rthumb 7.31081 -54.4725
lclavicle 4.84041e-014 -2.80286e-014
lhumerus -35.0047 -30.0141 86.5761
lradius 45.8367
lwrist 40.2167
lhand -29.9215 -9.10267
lfingers 7.12502
lthumb -3.24162 20.8524
rfemur -53.3618 7.1445 12.3179
rtibia 58.5332
rfoot -18.0595 -11.9694
rtoes -14.1187
lfemur -38.1297 -14.1423 -23.2891
ltibia 27.7132
lfoot -9.99301 4.82514
ltoes 8.12974
